<svg width="512" height="512" viewBox="0 0 512 512" fill="none" xmlns="http://www.w3.org/2000/svg">
  <rect width="512" height="512" rx="100" fill="url(#spaceGradient)"/>

  <circle cx="120" cy="100" r="3" fill="white" opacity="0.6" />
  <circle cx="400" cy="150" r="2" fill="white" opacity="0.4" />
  <circle cx="80" cy="350" r="4" fill="white" opacity="0.5" />
  <circle cx="420" cy="400" r="2.5" fill="white" opacity="0.7" />
  <circle cx="250" cy="60" r="2" fill="white" opacity="0.3" />

  <rect x="226" y="110" width="60" height="20" rx="10" stroke="white" stroke-width="8" fill="rgba(255,255,255,0.1)"/>

  <rect x="186" y="130" width="140" height="250" rx="20" stroke="white" stroke-width="8" fill="rgba(255,255,255,0.1)"/>

  <g clip-path="url(#bottleClip)">
    <rect x="186" y="138" width="140" height="62" fill="#3498DB"/>
    <rect x="186" y="200" width="140" height="60" fill="#2ECC71"/>
    <rect x="186" y="260" width="140" height="60" fill="#F1C40F"/>
    <rect x="186" y="320" width="140" height="60" fill="#E67E22"/>
  </g>

  <rect x="200" y="150" width="15" height="100" rx="7.5" fill="white" opacity="0.15"/>

  <defs>
    <linearGradient id="spaceGradient" x1="0" y1="0" x2="512" y2="512" gradientUnits="userSpaceOnUse">
      <stop stop-color="#0B0E1B"/>
      <stop offset="1" stop-color="#1A122E"/>
    </linearGradient>

    <clipPath id="bottleClip">
      <rect x="190" y="134" width="132" height="242" rx="16"/>
    </clipPath>
  </defs>
</svg>
